<svg fill="none" viewBox="0 0 24 24" xmlns="http://www.w3.org/2000/svg"><path fill="url(#icons-growthepie-growthepie-logo-a)" d="M8.36 6.762c-.041-.573.115-1.1.45-1.61.224-.34.542-.706.893-1.11C10.608 3 11.729 1.71 12.003 0c.598 1.31.308 2.585-.353 3.757-.297.527-.626.905-.94 1.266-.37.425-.718.826-.969 1.415-.137.32-.216.627-.252.927z"/><path fill="url(#icons-growthepie-growthepie-logo-b)" d="M10.297 7.799c.138-.506.376-.979.692-1.437a10 10 0 0 1 .728-.921c.742-.858 1.202-1.39 1.067-4.266q.13.278.255.534v.001c.724 1.501 1.231 2.554.379 4-.422.714-.73 1.069-1 1.383-.307.353-.568.655-.896 1.358z"/><path fill="url(#icons-growthepie-growthepie-logo-c)" d="M13.472 7.346c-.333.394-.876.937-.9.973l3.071-1.717c-.064-.573-.486-1.247-1.005-2.205.105 1.263-.388 2.026-1.166 2.949"/><path fill="url(#icons-growthepie-growthepie-logo-d)" d="M15.62 7.172c-.082.367-.535 1.129-.867 1.525-1.05 1.25-1.598 1.783-2.497 3.663q-.077-.304-.155-.578c-.25-.905-.405-1.659-.104-2.308z"/><path fill="url(#icons-growthepie-growthepie-logo-e)" d="M11.563 11.41c-.257-.753-.442-1.383-.307-2.179l-1.074-.7c-.06 1.172.44 2.539 1.822 4.3-.073-.437-.294-.992-.44-1.422"/><path fill="url(#icons-growthepie-growthepie-logo-f)" d="M9.466 8.065c.018.381.254 1.388.465 1.92-.602-.767-1.259-1.943-1.447-2.56z"/><path fill="url(#icons-growthepie-growthepie-logo-g)" d="M22.114 13.789c0-1.742-3.24-3.208-7.618-3.618a7.6 7.6 0 0 0-1.235 1.908l-.6 1.142a.693.693 0 0 1-1.17.09l-.387-.517c-.803-1.026-1.39-1.838-1.854-2.599-4.25.443-7.37 1.885-7.37 3.594 0 2.06 4.534 3.733 10.12 3.733q.405 0 .802-.012l.82-2.32.006-.017a1.2 1.2 0 0 1 1.1-.754h.003l7.236.02c.075-.183.147-.46.147-.65"/><path fill="url(#icons-growthepie-growthepie-logo-h)" d="M15.026 17.572h5.67l-.248.629h-5.64l-1.255 3.581V17.98l.878-2.485a.34.34 0 0 1 .308-.21l6.873.001-.255.62H15.62l-.176.523h5.717l-.271.621h-5.665z"/><path fill="url(#icons-growthepie-growthepie-logo-i)" d="M2.228 15.436c.653 1.846 2.25 4.014 2.59 4.331 1.174 1.106 4.955 2.016 7.932 2.016V18.67c-5.161 0-9.191-1.672-10.522-3.235"/><defs><radialGradient id="icons-growthepie-growthepie-logo-a" cx="0" cy="0" r="1" gradientTransform="matrix(-2.94333 5.55614 -2.99873 -4.70583 11.581 2.288)" gradientUnits="userSpaceOnUse"><stop stop-color="#1DF7EF"/><stop offset="1" stop-color="#10808C"/></radialGradient><radialGradient id="icons-growthepie-growthepie-logo-b" cx="0" cy="0" r="1" gradientTransform="matrix(-2.64061 5.48869 -2.69031 -4.6487 13.193 3.435)" gradientUnits="userSpaceOnUse"><stop stop-color="#1DF7EF"/><stop offset="1" stop-color="#10808C"/></radialGradient><radialGradient id="icons-growthepie-growthepie-logo-c" cx="0" cy="0" r="1" gradientTransform="matrix(-2.27408 2.95853 -2.31688 -2.50576 15.066 5.615)" gradientUnits="userSpaceOnUse"><stop stop-color="#1DF7EF"/><stop offset="1" stop-color="#10808C"/></radialGradient><radialGradient id="icons-growthepie-growthepie-logo-d" cx="0" cy="0" r="1" gradientTransform="matrix(-2.80523 3.91336 -2.85803 -3.31446 14.908 8.784)" gradientUnits="userSpaceOnUse"><stop stop-color="#1DF7EF"/><stop offset="1" stop-color="#10808C"/></radialGradient><radialGradient id="icons-growthepie-growthepie-logo-e" cx="0" cy="0" r="1" gradientTransform="matrix(-1.35253 3.24254 -1.37799 -2.7463 11.66 9.867)" gradientUnits="userSpaceOnUse"><stop stop-color="#1DF7EF"/><stop offset="1" stop-color="#10808C"/></radialGradient><radialGradient id="icons-growthepie-growthepie-logo-f" cx="0" cy="0" r="1" gradientTransform="matrix(-1.07102 1.93152 -1.09118 -1.63592 9.659 8.22)" gradientUnits="userSpaceOnUse"><stop stop-color="#1DF7EF"/><stop offset="1" stop-color="#10808C"/></radialGradient><radialGradient id="icons-growthepie-growthepie-logo-g" cx="0" cy="0" r="1" gradientTransform="matrix(-14.9821 5.5452 -15.2641 -4.69657 18.312 12.454)" gradientUnits="userSpaceOnUse"><stop stop-color="#FFDF27"/><stop offset="1" stop-color="#FE5468"/></radialGradient><radialGradient id="icons-growthepie-growthepie-logo-h" cx="0" cy="0" r="1" gradientTransform="matrix(-5.967 4.90282 -6.0793 -4.15249 20.097 17.302)" gradientUnits="userSpaceOnUse"><stop stop-color="#1DF7EF"/><stop offset="1" stop-color="#10808C"/></radialGradient><radialGradient id="icons-growthepie-growthepie-logo-i" cx="0" cy="0" r="1" gradientTransform="matrix(-7.79092 4.78798 -7.93755 -4.05523 10.773 17.407)" gradientUnits="userSpaceOnUse"><stop stop-color="#1DF7EF"/><stop offset="1" stop-color="#10808C"/></radialGradient></defs></svg>